# xmcd
#
# Track frame offsets:
#	150
#	21130
#	40399
#	60552
#	79606
#	102397
#	130479
#	149643
#	165467
#	190507
#	205722
#	230343
#	248771
#
# Disc length: 3659 seconds
#
# Revision: 1
# Processed by: cddbd v1.5.2PL0 Copyright (c) Steve Scherf et al.
# Submitted via: audiograbber 1.83.01
#
DISCID=ab0e490d
DTITLE=Bernard Allison - Chills and Thrills
DYEAR=2007
DGENRE=Bluesrock
TTITLE0=Chills and Thrills
TTITLE1=Boogie Man
TTITLE2=So Devine
TTITLE3=When I'm gone
TTITLE4=Missing Tyrone
TTITLE5=Just my guitar and me
TTITLE6=Compromising for your needs
TTITLE7=Black and White
TTITLE8=Serious
TTITLE9=Heart of St. Paul
TTITLE10=Thats why I'm crying
TTITLE11=Groove with me
TTITLE12=Serious (after hours)
EXTD=Jazz House Records
EXTT0=
EXTT1=
EXTT2=
EXTT3=
EXTT4=
EXTT5=
EXTT6=
EXTT7=
EXTT8=
EXTT9=
EXTT10=
EXTT11=
EXTT12=
PLAYORDER=
